<?xml version="1.0" standalone="no"?><!DOCTYPE svg PUBLIC "-//W3C//DTD SVG 1.1//EN" "http://www.w3.org/Graphics/SVG/1.1/DTD/svg11.dtd"><svg t="1761289117789" class="icon" viewBox="0 0 1024 1024" version="1.1" xmlns="http://www.w3.org/2000/svg" p-id="5892" xmlns:xlink="http://www.w3.org/1999/xlink" width="200" height="200"><path d="M341.14 721.37L153.87 956.58h296.38zM885.57 81.16c-42.27-26.43-97.97-13.59-124.4 28.68l-15.78 25.24c-11.74-2.13-23.87-1.86-35.84 0.89-23.15 5.34-42.85 19.37-55.43 39.52l-37.1 59.31 74.46 46.56-144.79 181.86 124.28 156.09L797.3 347.54l67.73 42.34 37.09-59.31c19.83-31.71 17.17-71.23-3.67-99.72l15.8-25.27c26.44-42.28 13.6-97.98-28.68-124.42z" p-id="5893" fill="#ffffff"></path><path d="M332.62 281.31l74.37-46.51-37.1-59.31c-12.59-20.15-32.28-34.18-55.43-39.52-11.97-2.74-24.1-3.02-35.84-0.89l-15.78-25.24c-26.43-42.27-82.13-55.11-124.4-28.68-42.28 26.44-55.12 82.14-28.67 124.41l15.81 25.27c-20.84 28.49-23.49 68.01-3.67 99.72L159 389.87l68.27-42.68 282.71 609.39h360.3L332.62 281.31z" p-id="5894" fill="#ffffff"></path></svg>