<?xml version="1.0" encoding="UTF-8"?>
<svg id="uuid-96dc3cd9-5376-490a-a853-84db23810969" data-name="uuid-31c11efb-0167-41ad-90fe-d8e20cf903f1" xmlns="http://www.w3.org/2000/svg" viewBox="0 0 860.9 732.63">
  <defs>
    <style>
      .uuid-f35aa39c-b071-4b6b-9cb0-2f6f7ecab1e5 {
        fill: #fff;
        stroke-width: 0px;
      }
    </style>
  </defs>
  <path class="uuid-f35aa39c-b071-4b6b-9cb0-2f6f7ecab1e5" d="m325.85,572.71c-.48,0-.98-.08-1.46-.24-2.35-.81-3.6-3.37-2.8-5.72.33-.96.28-1.77-.18-2.7-1.66-3.39-7.77-6.51-11.23-7.69-16.52-5.5-46.24-18.79-59.54-45.8-8.44-17.14-8.89-36.87-1.33-58.64,6.7-19.3,20.47-33.82,40.94-43.17,36.98-16.88,85.42-11.93,114.79-.18,26.11,10.44,44.34,31.07,47.57,53.82,2.72,19.17-5.14,37.03-22.13,50.29-22.48,17.54-41.95,12.4-54.33,5-12.26-7.34-20.89-19.85-23.68-34.32-1.97-10.23-.75-18.29,3.63-23.97,3.9-5.06,10.06-7.9,18.32-8.46,10.44-.7,17.36,1.63,20.58,6.94,4.7,7.74-1.05,17.66-1.72,18.76-1.29,2.12-4.06,2.8-6.18,1.51-2.12-1.29-2.8-4.05-1.52-6.17,1.21-2.02,3.22-6.99,1.72-9.43-1.29-2.11-5.76-3.06-12.28-2.62-5.57.38-9.54,2.05-11.8,4.97-3.4,4.42-2.92,11.56-1.92,16.77,2.3,11.96,9.4,22.27,19.46,28.3,14.48,8.67,29.34,7.19,44.17-4.37,14.35-11.19,21.01-26.08,18.76-41.93-2.78-19.58-18.87-37.48-42-46.73-27.64-11.05-73.13-15.77-107.71.01-18.15,8.28-30.32,21.04-36.18,37.93-6.74,19.42-6.43,36.82.9,51.72,11.86,24.08,39.13,36.18,54.33,41.25,1.29.43,12.58,4.42,16.44,12.24,1.51,3.07,1.73,6.39.62,9.61-.64,1.87-2.39,3.04-4.26,3.04l.02-.02Z"/>
  <path class="uuid-f35aa39c-b071-4b6b-9cb0-2f6f7ecab1e5" d="m302.56,571.3c-2.72,0-5.67-.18-8.87-.53-2.23-.25-4.46-.66-6.62-1.23l-2.28-.6c-5.97-1.56-15.95-4.17-21.28-6.28-7.59-3.01-16.19-.82-16.28-.8-2.4.63-4.86-.8-5.49-3.2s.78-4.85,3.18-5.5c.46-.12,11.5-3,21.91,1.13,4.81,1.91,14.46,4.43,20.23,5.94l2.31.6c1.73.46,3.52.79,5.31.99,7.6.84,20.49,1.3,21.34-5.11.33-2.46,2.59-4.19,5.06-3.87,2.46.33,4.19,2.59,3.87,5.06-1.19,8.9-8.71,13.39-22.38,13.39h0Z"/>
  <path class="uuid-f35aa39c-b071-4b6b-9cb0-2f6f7ecab1e5" d="m274.61,732.62c-28.27,0-47.36-7.19-51.4-8.85-10.41-4.29-51.21-29.07-63.98-59.62-.96-2.29.12-4.93,2.41-5.89,2.29-.96,4.93.12,5.89,2.42,11.52,27.55,49.85,50.95,59.11,54.77,3.69,1.52,23.59,9.05,53.3,8.04,40.13-1.37,79.07-17.23,115.75-47.14,25.3-20.63,39.35-44.5,41.76-70.96,4.2-45.98-28.21-84.68-28.54-85.07-1.61-1.89-1.38-4.73.51-6.34,1.89-1.61,4.73-1.38,6.34.51,1.44,1.69,35.18,42.01,30.65,91.72-2.64,28.96-17.79,54.9-45.04,77.12-48.5,39.55-93.85,49.3-126.77,49.3h0Z"/>
  <path class="uuid-f35aa39c-b071-4b6b-9cb0-2f6f7ecab1e5" d="m165.22,670.88c-.13,0-.25,0-.38-.02-30.5-2.58-51.46-12.7-62.29-30.08-15.6-25.02-4.06-55.37-3.56-56.65.9-2.32,3.51-3.46,5.83-2.56,2.31.9,3.46,3.51,2.56,5.82h0c-.11.27-10.39,27.53,2.84,48.68,9.26,14.81,27.89,23.5,55.38,25.82,2.48.21,4.31,2.39,4.1,4.86-.2,2.35-2.17,4.12-4.48,4.12h0Z"/>
  <path class="uuid-f35aa39c-b071-4b6b-9cb0-2f6f7ecab1e5" d="m135.42,595.24c-2.18,0-4.33-.12-6.44-.36-33.77-3.92-88.39-34.3-98.35-87.05-4.85-25.66.04-54.83,13.76-82.14,13.16-26.19,33.32-48.84,56.76-63.78,33.1-21.09,71.06-23.83,93.99-17.19,10.38,3.01,17.35,7.75,20.16,13.73,1.06,2.25.09,4.93-2.16,5.99s-4.93.09-5.99-2.16c-1.61-3.42-7.03-6.75-14.52-8.92-20.98-6.08-55.91-3.45-86.65,16.13-46.98,29.93-75.57,88.68-66.51,136.66,9.13,48.31,59.43,76.17,90.55,79.78,22.07,2.55,50.27-11.47,61.38-17.62,2.17-1.2,4.41-2.57,6.85-4.17.3-.2.62-.42.98-.65,5.45-3.67,18.22-12.27,35.07-6.78,1.69.55,3.56.41,5.13-.38,19.09-9.63,17.63-36.29,17.61-36.56-.16-2.48,1.72-4.62,4.2-4.78,2.49-.17,4.62,1.71,4.78,4.19.09,1.33,1.91,32.85-22.54,45.19-3.67,1.85-8.04,2.18-11.97.9-12.68-4.12-22.16,2.26-27.26,5.69-.38.26-.73.49-1.06.71-2.63,1.73-5.07,3.21-7.44,4.53-10.85,6.01-37.08,19.04-60.33,19.04h0Z"/>
  <path class="uuid-f35aa39c-b071-4b6b-9cb0-2f6f7ecab1e5" d="m485.24,712.6c-10.57,0-20.93-2.04-30.93-6.15-2.3-.94-3.4-3.57-2.45-5.87.94-2.3,3.57-3.4,5.87-2.45,25.43,10.44,52.53,6.19,80.55-12.65,21.35-14.36,35.2-32.21,35.34-32.38.04-.05.08-.11.13-.16,7.71-9.15,27.35-36.23,25.59-51.41-.37-3.17-1.62-5.44-3.93-7.16-31.85-23.67-100.98,21.42-101.68,21.87-1.73,1.14-4.03.95-5.55-.47s-1.87-3.69-.85-5.5c16.13-28.58,56.45-107.35,50.41-130.12-10.97-21.79-66.78-5.56-87.46,2.58-2.31.91-4.92-.23-5.83-2.54s.23-4.92,2.54-5.83c.82-.32,20.32-7.95,42-11.86,30.77-5.54,49.96-.79,57.04,14.11.1.21.19.44.25.66,3.9,13.3-3.42,39.79-22.39,81-7.47,16.23-15.31,31.49-20.91,42.04,23.5-12.8,70.39-33.55,97.79-13.18,4.32,3.21,6.85,7.7,7.5,13.35,2.53,21.84-25.64,55.85-27.58,58.17-1.21,1.56-15.21,19.33-37.18,34.15-19.49,13.15-39.21,19.79-58.26,19.79h-.01Z"/>
  <path class="uuid-f35aa39c-b071-4b6b-9cb0-2f6f7ecab1e5" d="m436.48,712.29c-3.12,0-6.16-.57-9.11-1.7-18.61-7.14-25.82-34.6-26.12-35.76-.62-2.41.84-4.86,3.25-5.47,2.4-.62,4.86.83,5.47,3.24h0c.06.24,6.37,24.14,20.64,29.6,6.01,2.3,12.93.87,20.59-4.24,2.28-1.52,4.14-7.1,3.27-12.99-.52-3.51-1.94-6.12-3.63-6.63-2.09-.64-6.6,1.18-12.97,8.2-1.67,1.84-4.52,1.98-6.36.31s-1.98-4.52-.31-6.36c8.28-9.11,15.76-12.73,22.26-10.76,5.23,1.59,8.85,6.67,9.92,13.93,1.1,7.46-.68,17.45-7.18,21.79-6.84,4.56-13.44,6.85-19.71,6.85h-.01Z"/>
  <path class="uuid-f35aa39c-b071-4b6b-9cb0-2f6f7ecab1e5" d="m178.59,454.82c-5.73,0-11.4-1.98-17.06-5.94-14.23-9.51-31.2-33.32-26.11-53.36,2.79-10.49,13.97-16.89,25.48-14.66,14.9,2.5,24.72,15.16,28.94,26.2.89,2.32-.27,4.92-2.6,5.81-2.32.89-4.92-.27-5.81-2.6-3.18-8.32-10.87-18.69-22.06-20.54-.05,0-.09-.02-.14-.02-6.05-1.2-13.35,1.5-15.1,8.08-3.56,14.01,8.91,34.61,22.44,43.64.03.02.06.04.08.06,9.23,6.46,17.51,5.71,27.69-2.52.03-.02.05-.04.08-.06,10.99-8.47,19.83-19.6,28.66-31.21,1.5-1.98,4.33-2.36,6.31-.86s2.36,4.33.86,6.31c-9.2,12.1-18.44,23.71-30.28,32.85-7.3,5.89-14.38,8.83-21.36,8.83h-.02Z"/>
  <path class="uuid-f35aa39c-b071-4b6b-9cb0-2f6f7ecab1e5" d="m252.99,451.88c-1.5,0-2.97-.75-3.82-2.12-13.45-21.59-40.67-10.97-41.82-10.51-2.3.92-4.92-.19-5.85-2.49-.93-2.3.17-4.92,2.47-5.85,12.16-4.94,38.85-8.36,52.84,14.09,1.31,2.11.67,4.88-1.44,6.2-.74.46-1.56.68-2.38.68h0Z"/>
  <path class="uuid-f35aa39c-b071-4b6b-9cb0-2f6f7ecab1e5" d="m473.44,563.56c-1.43,0-2.84-.68-3.71-1.95-1.41-2.05-.89-4.85,1.15-6.26,1.95-1.36,7.59-6.23,7.71-10.54.02-.68.08-2.75-3.29-5.4-8.07-6.34-30.48,7.62-40.08,15.37-1.93,1.56-4.76,1.26-6.33-.67-1.56-1.93-1.26-4.76.67-6.33,3.58-2.9,35.42-27.92,51.3-15.45,5.75,4.52,6.83,9.44,6.73,12.77-.3,9.6-10.45,16.86-11.6,17.65-.78.54-1.67.79-2.55.79v.02Z"/>
  <path class="uuid-f35aa39c-b071-4b6b-9cb0-2f6f7ecab1e5" d="m463.75,669.82c-.65,0-1.31-.14-1.93-.44-2.24-1.07-3.2-3.75-2.13-6,.65-1.36,16.07-33.31,36.37-39.79,6.45-2.06,12.7-1.44,18.58,1.84,5.3,2.96,8.28,8.01,7.96,13.52-.43,7.45-6.76,14.24-17.36,18.62-2.29.95-4.93-.14-5.88-2.44s.14-4.93,2.44-5.88c7.18-2.97,11.59-7.02,11.82-10.83.12-2.01-1.11-3.88-3.36-5.13-3.67-2.05-7.42-2.42-11.47-1.13-13.8,4.4-27.04,26.82-30.98,35.08-.77,1.62-2.38,2.57-4.07,2.57h0Z"/>
  <path class="uuid-f35aa39c-b071-4b6b-9cb0-2f6f7ecab1e5" d="m651.55,605.44c-19.24,0-31.03-12.42-35.57-24.43-6.61-17.52-.51-35.93,14.84-44.78,7.03-4.05,16.47-3.33,25.27,1.94,8.97,5.37,14.61,13.99,14.36,21.95-.15,4.78-2.38,11.54-12.14,16.59-2.21,1.14-4.92.27-6.06-1.93-1.14-2.21-.28-4.92,1.93-6.06,4.72-2.44,7.17-5.42,7.28-8.87.14-4.6-3.96-10.34-9.99-13.94-4.6-2.75-11.25-4.69-16.15-1.87-13.35,7.7-15.02,22.92-10.91,33.8,4.21,11.17,15.7,21.7,35.31,17.75,24.53-4.94,47.58-21.1,57.36-40.22,3.67-7.17,7.02-17.97,2.14-28.7-9.08-19.96-23.42-33.11-42.63-39.07-56.25-17.44-136.82,30.57-137.63,31.06-2.12,1.28-4.89.6-6.18-1.53-1.28-2.13-.6-4.89,1.53-6.18,3.44-2.07,84.88-50.57,144.94-31.95,21.77,6.75,37.97,21.53,48.16,43.94,5.04,11.08,4.23,23.71-2.32,36.52-10.96,21.43-36.52,39.49-63.6,44.95-3.51.71-6.82,1.03-9.94,1.03h0Z"/>
  <path class="uuid-f35aa39c-b071-4b6b-9cb0-2f6f7ecab1e5" d="m645.89,711.64c-9.92,0-23.58-1.76-36.11-9.38-2.12-1.29-2.8-4.06-1.51-6.18s4.06-2.8,6.18-1.51c18.95,11.53,41.88,7.36,43.64,7.01,2.5-.71,45.28-13.32,62.02-48.64,8.11-17.13,9.29-31.03,3.49-41.31-9.16-16.25-33.15-18.87-33.39-18.89-2.47-.25-4.27-2.46-4.02-4.93s2.44-4.27,4.92-4.03c1.17.12,28.82,3.07,40.31,23.38,7.35,12.98,6.28,29.68-3.17,49.63-18.96,40.04-65.95,52.99-67.94,53.52-.07.02-.14.04-.21.05-.5.11-6.12,1.28-14.21,1.28h0Zm13.26-5.67h0Z"/>
  <path class="uuid-f35aa39c-b071-4b6b-9cb0-2f6f7ecab1e5" d="m582.27,715.71c-37.67,0-59.18-12.38-60.39-13.1-2.14-1.27-2.85-4.03-1.58-6.16,1.26-2.14,4.02-2.84,6.16-1.59h0c.38.22,38.27,21.79,101.29,5.96,2.42-.61,4.86.86,5.46,3.27.61,2.41-.86,4.86-3.27,5.46-17.92,4.5-33.88,6.16-47.67,6.16h0Z"/>
  <path class="uuid-f35aa39c-b071-4b6b-9cb0-2f6f7ecab1e5" d="m695.43,473.12c-.99,0-1.98-.32-2.81-.99-1.94-1.55-2.26-4.38-.7-6.32,12.67-15.84,37.87-25.31,56.77-30.47,12.13-3.31,24.73-4.61,37.46-3.88,26.53,1.53,56.61-1.96,63.97-13.2,2.61-3.99,2.3-9.05-.96-15.49-14.83-29.28-40.07-43.48-75.01-42.21-26.71.98-49.35,11.03-49.57,11.13-2.27,1.02-4.93,0-5.95-2.25-1.02-2.27-.01-4.93,2.25-5.95.98-.44,24.26-10.81,52.68-11.91,38.34-1.48,67.27,14.81,83.64,47.12,4.77,9.42,4.93,17.66.46,24.48-12.54,19.14-58.29,18.05-72.02,17.25-11.75-.68-23.38.52-34.57,3.58-17.62,4.81-40.96,13.46-52.12,27.41-.89,1.11-2.2,1.69-3.52,1.69h0Z"/>
  <path class="uuid-f35aa39c-b071-4b6b-9cb0-2f6f7ecab1e5" d="m556.66,401.56c-1.1,0-2.21-.4-3.07-1.21-1.81-1.7-1.91-4.55-.21-6.36.58-.63,50.02-54.34,41.07-108.54-4.72-28.58-24.89-52.6-59.94-71.39-27.71-14.85-54.19-16.2-78.73-4.01-18.95,9.42-33.28,25.58-40.37,37.57-5.32,8.99-7.97,16.63-8.33,24.03-.52,10.64,2.95,14.06,5.45,15.32,8.68-5.54,27.13-16.08,46.26-19.2,20.83-3.39,40.49,9.41,45.75,29.78,3.6,13.95,1.62,27.98-5.89,41.7-18.56,33-64.85,50.76-102.4,50.77-4.21,0-8.31-.22-12.25-.67-.04,0-.08,0-.11-.01-27.7-3.88-53.07-17.42-73.39-39.13-.03-.03-.06-.07-.09-.1-18.82-21.43-30.48-52.71-31.99-85.81-1.04-41.87,23.25-96.44,72.18-162.29.76-1.02,1.39-1.8,2.03-2.52,20.26-22.65,65.21-32.85,99.12-31.25,21.13.66,41.56,5.81,59.58,10.36,2.41.61,3.87,3.05,3.26,5.46-.61,2.41-3.06,3.87-5.46,3.26-17.58-4.43-37.5-9.46-57.73-10.09-31.87-1.51-73.68,7.7-92.06,28.25-.46.51-.93,1.1-1.52,1.89-47.7,64.2-71.39,116.89-70.41,156.61,1.42,30.98,12.25,60.22,29.72,80.14,18.87,20.15,42.37,32.71,67.96,36.31,36.22,4.13,86.91-12.1,105.7-45.52,6.44-11.77,8.1-23.27,5.04-35.09-4.09-15.84-19.38-25.79-35.58-23.15-19.5,3.18-39.12,15.4-44.67,19.07-1.1.73-2.46.94-3.73.57-5.52-1.59-14.64-6.96-13.75-25.09.44-8.92,3.48-17.87,9.57-28.17,7.75-13.09,23.4-30.75,44.12-41.05,26.92-13.37,56.99-11.94,86.99,4.14,37.66,20.19,59.39,46.4,64.58,77.9,9.66,58.64-41.21,113.79-43.38,116.11-.89.95-2.08,1.42-3.29,1.42h-.03Z"/>
  <path class="uuid-f35aa39c-b071-4b6b-9cb0-2f6f7ecab1e5" d="m674.53,211.69c-1.78,0-3.47-1.06-4.17-2.81-21.26-52.59-74.86-85.77-75.4-86.1-2.12-1.29-2.79-4.06-1.5-6.19,1.29-2.12,4.06-2.79,6.19-1.5,2.3,1.41,56.69,35.09,79.05,90.41.93,2.3-.18,4.93-2.49,5.86-.55.22-1.12.33-1.68.33Z"/>
  <path class="uuid-f35aa39c-b071-4b6b-9cb0-2f6f7ecab1e5" d="m683.51,489.78c-.92,0-1.85-.28-2.66-.87-2-1.47-2.44-4.29-.97-6.29,29.37-40.06,36.08-85.39,36.54-116.36.5-33.78-6.11-58.34-6.18-58.58-.66-2.4.75-4.87,3.15-5.53,2.39-.66,4.87.75,5.53,3.15.29,1.04,6.98,25.82,6.5,60.81-.44,32.36-7.45,79.77-38.29,121.84-.88,1.2-2.25,1.84-3.63,1.84h0Z"/>
  <path class="uuid-f35aa39c-b071-4b6b-9cb0-2f6f7ecab1e5" d="m546.21,483.78c-1.28,0-2.56-.55-3.45-1.61-1.6-1.9-1.35-4.74.55-6.34,32.17-27,49.63-56.62,50.49-85.67.65-21.84-8.31-35.99-8.4-36.13-1.35-2.08-.76-4.87,1.32-6.22s4.86-.77,6.21,1.3c.43.65,10.44,16.24,9.88,40.71-.51,22.24-10.24,56.41-53.72,92.9-.84.71-1.87,1.05-2.89,1.05h.01Z"/>
  <path class="uuid-f35aa39c-b071-4b6b-9cb0-2f6f7ecab1e5" d="m701.01,310.84c-7.33,0-14-2.56-19.16-7.5-.82.17-1.7.12-2.54-.21-28.46-10.97-37.78-29.07-40.58-42.31-3.77-17.78,2.33-35.51,9.99-43.16,9.76-9.77,23.21-15.04,36.89-14.46,11.26.47,28.08,5.08,44.34,24.32,12.65,14.98,17.28,32.22,13.04,48.56-3.84,14.79-14.72,26.86-29.11,32.3-4.39,1.66-8.73,2.47-12.86,2.47h-.01Zm-7.67-41.22c-2.72,0-6.86.87-9.44,5.55-3.37,6.11-2.16,14.49,2.94,20.37,5.57,6.43,14.27,8.03,23.85,4.41,11.66-4.4,20.48-14.18,23.58-26.14,3.49-13.43-.49-27.81-11.2-40.49-11.2-13.26-24.28-20.56-37.84-21.13-11.18-.47-22.16,3.84-30.15,11.83-4.97,4.97-10.81,19.52-7.55,34.94,2.86,13.5,12.05,24.47,26.76,32.09-2.09-6.8-1.6-14.18,1.72-20.21,4.09-7.44,11.66-11.18,20.24-10.01,8.56,1.16,15.48,6.85,17.21,14.14,1.39,5.87.68,10.58-2.11,13.99-3.84,4.7-9.87,4.63-10.55,4.61-2.48-.08-4.43-2.17-4.34-4.65.08-2.47,2.15-4.38,4.6-4.35.13,0,2.33-.06,3.35-1.34.88-1.1.98-3.3.3-6.19-.85-3.59-4.92-6.66-9.67-7.31-.45-.06-1.03-.11-1.7-.11h0Z"/>
  <path class="uuid-f35aa39c-b071-4b6b-9cb0-2f6f7ecab1e5" d="m260.21,444.09c-1.04,0-2.08-.36-2.93-1.08-38.45-32.96-50.85-74.25-54.49-103.08-3.93-31.17,1.14-54.32,1.35-55.29.54-2.43,2.95-3.95,5.38-3.41,2.42.54,3.95,2.95,3.41,5.37-.06.27-4.96,22.87-1.17,52.51,5.06,39.51,22.35,72.17,51.38,97.05,1.89,1.62,2.11,4.46.49,6.35-.89,1.04-2.15,1.57-3.42,1.57h0Z"/>
  <path class="uuid-f35aa39c-b071-4b6b-9cb0-2f6f7ecab1e5" d="m261.58,133.88c-1.4,0-2.79-.65-3.66-1.88-1.45-2.02-.98-4.83,1.04-6.28,65.88-47.14,107.47-36.98,109.21-36.52,2.4.63,3.84,3.09,3.21,5.49s-3.07,3.84-5.48,3.22c-.56-.14-39.78-9.18-101.71,35.13-.79.57-1.71.84-2.61.84h0Z"/>
  <path class="uuid-f35aa39c-b071-4b6b-9cb0-2f6f7ecab1e5" d="m122.34,156.33c-14.29,0-27.56-3.68-37.93-7.79-21.79-8.64-42.67-24.11-55.85-41.4C3.52,74.29-2.53,15.25.87,6.74,2.42,2.86,5.05,1.24,6.98.56c4.8-1.68,9.63.93,10.16,1.23.43.25.82.56,1.15.93.58.65,58.65,65.23,128.51,55.43,54.37-7.63,83.91,11.87,99.12,29.58,16.51,19.22,19.96,40.07,20.1,40.95.39,2.45-1.29,4.76-3.74,5.15-2.46.39-4.75-1.28-5.15-3.73h0c-.03-.19-3.3-19.52-18.3-36.8-20.01-23.05-50.55-31.87-90.78-26.22-31,4.35-64.46-4.39-96.76-25.28C29.55,27.72,15.31,12.8,12.18,9.38c-.74-.29-1.73-.51-2.23-.33-.33.12-.61.76-.72,1.03-2.1,6.63,3.52,61.45,26.5,91.6,22.41,29.4,75.1,59.29,115.76,38.96,2.22-1.11,4.93-.21,6.04,2.01s.21,4.93-2.01,6.04c-11.09,5.55-22.42,7.63-33.17,7.63h-.01Z"/>
  <path class="uuid-f35aa39c-b071-4b6b-9cb0-2f6f7ecab1e5" d="m98.21,201.58c-.79,0-1.59-.21-2.31-.64-62.77-37.64-59.78-82.52-59.62-84.42.21-2.48,2.37-4.33,4.86-4.11,2.47.21,4.31,2.37,4.11,4.84,0,.19-.65,10.46,5.71,24.77,5.93,13.35,19.35,33.07,49.57,51.2,2.13,1.28,2.82,4.04,1.54,6.17-.84,1.41-2.33,2.19-3.86,2.19Z"/>
  <path class="uuid-f35aa39c-b071-4b6b-9cb0-2f6f7ecab1e5" d="m146.47,265.59c-5.59,0-12.05-.23-19.52-.79-52.84-3.9-79.56-44.65-82.27-51.99-2.05-5.53-1.33-11,1.96-15.02,4.62-5.63,13.24-7.48,25.62-5.5,20.37,3.26,37.82-2.12,38-2.17,2.37-.74,4.9.57,5.64,2.94.75,2.37-.56,4.89-2.93,5.64-.79.25-19.57,6.09-42.14,2.48-12.23-1.95-16.13.98-17.24,2.33-1.72,2.1-.91,5.02-.48,6.18,2.03,5.48,26.48,42.59,74.5,46.14,38.69,2.85,47.06-3.4,47.14-3.47-.19.15-.26.25-.26.25l6.6,6.11c-1.68,1.82-8.72,6.86-34.62,6.86h0Z"/>
  <path class="uuid-f35aa39c-b071-4b6b-9cb0-2f6f7ecab1e5" d="m156.01,308.37c-25.6,0-30.54-10.6-31.2-16.91-1.47-14.04,15.92-31.3,35.79-35.52,2.43-.52,4.82,1.04,5.34,3.47.52,2.43-1.04,4.82-3.47,5.34-15.83,3.36-29.59,17.37-28.7,25.78.59,5.63,8.7,8.85,22.25,8.85,53.77,0,62.6-37.62,62.96-39.23.53-2.42,2.91-3.97,5.34-3.45,2.42.52,3.97,2.89,3.46,5.32-.1.48-2.61,12-12.84,23.46-9.32,10.44-27.11,22.9-58.92,22.9h-.01Z"/>
  <path class="uuid-f35aa39c-b071-4b6b-9cb0-2f6f7ecab1e5" d="m173.86,213.3c-5.24,0-11.57-1.74-19.11-6.43-1.64-1.02-2.14-3.18-1.12-4.82s3.18-2.15,4.82-1.12c12.24,7.61,21.35,7.23,27.87-1.17,4.46-5.75,5.28-13.8,2.16-21-.58-1.33-1.05-2.71-1.41-4.1-2.72-10.5,2.34-21.59,12.04-26.39,16.06-7.94,31.05,7.86,31.68,8.54,1.32,1.41,1.24,3.63-.18,4.95-1.41,1.32-3.62,1.24-4.94-.17-.15-.16-12.1-12.65-23.46-7.04-6.74,3.33-10.25,11.05-8.36,18.36.27,1.04.63,2.07,1.06,3.07,4.15,9.55,2.98,20.31-3.05,28.08-3.2,4.12-8.99,9.25-17.98,9.25h-.02Z"/>
  <path class="uuid-f35aa39c-b071-4b6b-9cb0-2f6f7ecab1e5" d="m220.59,135.2c-7.65,0-13.88-6.23-13.88-13.88s6.23-13.88,13.88-13.88,13.88,6.23,13.88,13.88-6.23,13.88-13.88,13.88Zm0-20.76c-3.79,0-6.88,3.09-6.88,6.88s3.09,6.88,6.88,6.88,6.88-3.09,6.88-6.88-3.09-6.88-6.88-6.88Z"/>
  <path class="uuid-f35aa39c-b071-4b6b-9cb0-2f6f7ecab1e5" d="m359.02,281.67c-14.3,0-25.93-11.63-25.93-25.93s11.63-25.93,25.93-25.93,25.93,11.63,25.93,25.93-11.63,25.93-25.93,25.93Zm0-44.85c-10.44,0-18.93,8.49-18.93,18.93s8.49,18.93,18.93,18.93,18.93-8.49,18.93-18.93-8.49-18.93-18.93-18.93Z"/>
  <path class="uuid-f35aa39c-b071-4b6b-9cb0-2f6f7ecab1e5" d="m556.03,150.18c-26.74,0-48.5-21.76-48.5-48.5s21.76-48.5,48.5-48.5,48.5,21.76,48.5,48.5-21.76,48.5-48.5,48.5Zm0-88.01c-21.78,0-39.5,17.72-39.5,39.5s17.72,39.5,39.5,39.5,39.5-17.72,39.5-39.5-17.72-39.5-39.5-39.5Z"/>
  <path class="uuid-f35aa39c-b071-4b6b-9cb0-2f6f7ecab1e5" d="m625.3,204c-5.52,0-12-.56-19.45-1.69-33.02-4.97-81.68-20.83-123.96-40.39-27.95-12.93-75.44-37.92-79.5-59.98-.97-5.28.09-12.82,10.67-18.79,1.68-.95,3.82-.36,4.77,1.33.95,1.68.36,3.82-1.33,4.77-7.58,4.28-7.75,8.57-7.23,11.43,5.43,29.48,127.2,84.11,197.61,94.72,28.91,4.35,34.36-1.43,35.34-3.31,1.07-2.06,1.88-8.62-13.79-25.17-1.33-1.4-1.27-3.62.14-4.95,1.4-1.33,3.62-1.27,4.95.14,13.99,14.78,18.87,25.65,14.92,33.23-3.03,5.8-10.65,8.67-23.14,8.67h0Z"/>
</svg>