<svg version="1.0" xmlns="http://www.w3.org/2000/svg" width="800.000000" height="800.000000" viewBox="0 0 800.000000 800.000000" preserveAspectRatio="xMidYMid meet">
  <metadata>
    <rdf:RDF xmlns:rdf="http://www.w3.org/1999/02/22-rdf-syntax-ns#" xmlns:rdfs="http://www.w3.org/2000/01/rdf-schema#" xmlns:dc="http://purl.org/dc/elements/1.1/">
      <rdf:Description dc:format="image/svg+xml" dc:Label="1" dc:ContentProducer="001191330110MACRLGPT8B00000" dc:ProduceID="291444188" dc:ReservedCode1="BIx+dRRC20vrtNeCa8mbffJj8WbkRmoSGhApQQkY9R8=" dc:ContentPropagator="001191330110MACRLGPT8B00000" dc:PropagateID="291444188" dc:ReservedCode2="BIx+dRRC20vrtNeCa8mbffJj8WbkRmoSGhApQQkY9R8="/>
    </rdf:RDF>
  </metadata>
  <g transform="translate(0.000000,800.000000) scale(0.100000,-0.100000)" fill="#ffffffff" stroke="none">
    <path d="M1400 6213 c-37 -174 31 -441 155 -613 22 -30 34 -61 37 -92 3 -28 26 -90 58 -154 42 -87 65 -120 123 -178 l72 -72 -93 -34 c-51 -19 -95 -37 -98 -41 -10 -17 174 -185 253 -232 84 -49 199 -97 233 -97 27 0 26 -3 -15 -47 l-35 -38 38 -23 c65 -40 136 -55 238 -50 l92 4 7 -91 c4 -49 13 -121 21 -160 8 -38 14 -71 14 -72 0 0 -23 8 -51 18 -146 56 -329 22 -523 -97 -135 -82 -237 -190 -316 -337 -55 -102 -78 -174 -96 -297 -25 -175 6 -341 90 -478 62 -102 161 -198 252 -245 l32 -16 4 -99 c3 -86 8 -107 35 -163 58 -116 176 -208 291 -225 39 -6 49 -13 95 -72 121 -154 308 -262 525 -303 77 -14 279 -7 374 15 143 32 319 120 444 223 35 29 68 53 73 53 5 0 12 -9 16 -19 3 -10 19 -38 36 -61 39 -54 104 -84 163 -76 65 10 68 10 131 -8 80 -22 164 -20 262 4 l81 21 63 -20 c98 -31 189 -42 352 -42 406 1 644 91 775 293 129 199 102 419 -63 514 -18 10 -17 12 8 45 86 113 105 275 46 397 -25 51 -107 135 -149 152 -17 7 -30 18 -30 25 0 46 222 173 385 220 98 28 281 44 504 45 l123 0 -4 103 c-3 89 -7 108 -32 155 -102 184 -361 285 -616 239 -47 -9 -100 -19 -117 -23 l-33 -6 0 73 c-1 41 -7 107 -14 147 -12 72 -12 74 9 82 12 4 36 20 54 35 83 70 100 192 43 307 -55 112 -211 238 -317 255 -29 5 -42 19 -113 127 -110 168 -269 342 -374 410 -27 18 -28 20 -22 85 5 53 2 77 -15 122 -80 211 -333 276 -487 124 -28 -27 -53 -56 -56 -64 -4 -13 -16 -12 -89 3 -110 23 -342 32 -439 17 -41 -7 -120 -28 -175 -47 -129 -46 -150 -51 -270 -64 -113 -12 -265 -59 -387 -121 -43 -22 -81 -39 -85 -39 -5 0 -16 17 -25 38 -29 61 -107 150 -167 191 -120 82 -195 99 -466 110 -182 8 -222 12 -298 35 -118 35 -227 90 -382 194 -71 48 -133 88 -137 90 -3 2 -12 -23 -18 -55z m325 -367 c154 -73 331 -105 572 -106 140 0 212 -17 288 -70 57 -39 130 -149 172 -256 27 -73 28 -74 58 -68 37 8 91 33 185 85 75 41 191 92 197 86 1 -2 -16 -31 -38 -66 -151 -233 -237 -522 -226 -761 10 -211 80 -386 211 -527 78 -84 129 -122 236 -175 l75 -37 -85 -1 c-143 0 -325 -57 -418 -131 l-26 -20 -18 23 c-122 153 -204 356 -233 573 -8 64 -15 186 -15 271 0 84 -4 154 -9 154 -5 0 -42 -11 -82 -24 -78 -26 -167 -46 -200 -46 -16 0 -8 10 33 43 l53 42 -71 6 c-91 8 -231 51 -316 97 -38 20 -68 39 -68 42 0 3 42 26 93 53 106 55 131 72 123 85 -3 5 -36 22 -73 37 -89 35 -169 84 -216 133 l-38 39 83 6 c89 5 178 24 178 37 0 5 -22 15 -49 23 -169 49 -346 219 -439 421 -34 73 -36 80 -24 74 4 -2 43 -21 87 -42z m2910 -48 c33 -15 55 -56 55 -102 0 -26 -7 -40 -31 -60 -49 -41 -116 -30 -144 23 -19 38 -19 55 1 96 22 47 71 65 119 43z m-545 -118 c41 -5 106 -17 143 -26 66 -16 69 -18 93 -66 80 -158 244 -224 391 -159 l53 23 37 -28 c113 -86 242 -230 322 -360 l31 -51 -31 -57 c-28 -52 -31 -63 -28 -134 3 -60 11 -90 33 -137 37 -75 122 -160 203 -203 60 -32 62 -34 72 -85 44 -216 28 -481 -40 -673 -29 -83 -89 -206 -110 -229 -6 -5 -63 -11 -127 -11 -157 -2 -331 -43 -491 -115 -35 -16 -65 -29 -67 -29 -1 0 -2 10 0 23 1 12 40 60 88 108 101 102 178 222 215 334 23 69 26 96 25 200 0 77 -6 137 -15 168 -13 41 -14 56 -2 100 21 85 25 120 26 208 1 147 -34 252 -124 371 -239 318 -692 358 -955 84 -86 -89 -117 -158 -117 -257 0 -66 4 -81 28 -118 15 -23 49 -55 74 -71 44 -28 52 -30 139 -27 85 2 95 0 116 -20 29 -30 27 -80 -6 -137 -47 -81 -131 -136 -257 -167 -212 -54 -439 37 -570 227 -152 222 -142 538 28 867 107 208 264 354 439 411 126 41 259 54 384 36z m305 -785 c103 -29 218 -124 267 -220 49 -94 61 -220 33 -330 -28 -108 -118 -267 -222 -395 l-45 -55 31 -3 c56 -6 123 13 235 66 18 9 -5 -84 -38 -153 -37 -79 -110 -171 -179 -228 l-47 -38 -91 15 c-91 16 -182 11 -270 -14 -46 -14 -49 -13 -49 11 0 12 -14 50 -30 84 -41 87 -139 176 -258 236 l-91 46 92 6 c324 20 589 256 564 503 -10 97 -67 172 -167 218 -45 21 -70 26 -139 26 l-83 0 7 28 c16 67 83 134 178 177 96 44 196 51 302 20z m1020 -63 c79 -39 140 -115 133 -165 -7 -49 -117 -25 -182 40 -41 42 -75 131 -54 144 15 10 64 1 103 -19z m-3027 -786 c84 -43 100 -140 34 -199 -29 -26 -56 -14 -77 33 -17 38 -62 70 -100 70 -79 0 -100 -139 -34 -230 38 -53 114 -90 185 -90 89 0 198 73 241 162 l18 37 68 -101 c56 -82 68 -106 62 -127 -40 -163 -41 -225 -6 -326 45 -128 151 -234 296 -294 83 -35 176 -61 217 -61 27 0 28 2 28 54 0 29 -3 74 -6 99 -6 44 -8 46 -53 57 -72 18 -188 77 -227 117 -49 49 -74 106 -74 174 0 109 44 186 142 250 140 90 328 102 510 31 168 -65 245 -183 183 -278 -25 -38 -95 -84 -128 -84 -43 0 -97 57 -97 102 0 19 7 43 15 54 35 47 7 88 -70 99 -166 25 -196 -218 -47 -372 22 -22 71 -61 109 -85 122 -79 193 -218 193 -377 0 -154 -52 -264 -190 -401 -110 -110 -210 -172 -360 -222 -86 -29 -107 -32 -220 -32 -88 0 -144 5 -190 17 -162 44 -300 144 -385 281 l-45 73 -79 5 c-58 3 -87 10 -115 27 -53 33 -85 86 -88 146 -3 50 -3 50 27 48 57 -3 204 17 269 38 68 21 269 113 344 158 37 23 42 30 42 62 0 30 -6 41 -34 62 -18 15 -50 34 -71 44 -35 17 -38 17 -68 -1 -99 -58 -248 -126 -308 -141 -46 -11 -97 -16 -152 -14 -74 4 -93 9 -169 46 -179 89 -268 238 -268 448 0 173 63 326 189 458 85 89 155 135 261 171 85 29 185 34 228 12z m3667 -73 c28 -9 70 -30 95 -47 l45 -31 -95 -6 c-224 -15 -307 -29 -423 -73 -74 -28 -72 -30 -54 59 l12 60 70 23 c129 43 245 48 350 15z m-1721 -634 c55 -43 41 -87 -230 -725 -35 -83 -64 -156 -64 -162 0 -6 13 -7 37 -2 20 5 70 12 112 16 63 5 81 11 108 35 80 69 271 149 359 149 l46 0 -7 -32 c-28 -132 -186 -295 -352 -363 -117 -47 -151 -45 -335 20 -46 17 -48 17 -83 -5 -19 -12 -35 -26 -35 -31 0 -24 -40 19 -48 52 -8 33 -6 43 21 85 76 123 110 249 109 409 l0 100 75 34 c41 19 83 46 94 59 37 47 15 129 -40 152 -42 17 -87 6 -146 -34 l-50 -33 -33 54 -34 54 58 55 c68 63 134 98 225 118 100 22 181 20 213 -5z m979 -97 c88 -44 112 -78 111 -157 0 -35 -7 -73 -16 -90 -38 -71 -137 -144 -195 -145 -27 0 -56 40 -47 64 3 9 17 16 30 16 29 0 64 33 64 60 0 73 -66 134 -137 127 -56 -6 -97 -38 -127 -100 -56 -117 -44 -210 38 -292 65 -64 107 -77 248 -76 121 1 166 -11 193 -53 32 -48 -2 -159 -71 -235 -66 -73 -150 -112 -294 -137 -101 -17 -361 -30 -414 -20 l-37 7 55 60 c149 160 212 309 186 435 -15 69 -67 125 -135 144 -78 22 -214 1 -358 -56 -17 -6 -16 -1 6 42 13 27 39 84 57 127 18 43 45 90 61 106 37 37 204 123 305 156 125 42 201 54 310 52 91 -2 107 -5 167 -35z"/>
    <path d="M2515 5535 c-42 -22 -55 -43 -55 -88 0 -49 13 -73 52 -93 79 -41 172 43 138 125 -24 59 -82 83 -135 56z"/>
    <path d="M3369 4892 c-62 -56 -48 -171 26 -206 42 -20 68 -20 110 0 90 42 92 174 4 220 -47 24 -104 18 -140 -14z"/>
  </g>
</svg>